<svg xmlns="http://www.w3.org/2000/svg" xmlns:xlink="http://www.w3.org/1999/xlink" version="1.1" width="256" height="256" viewBox="0 0 256 256" xml:space="preserve">

<defs>
</defs>
<g style="stroke: none; stroke-width: 0; stroke-dasharray: none; stroke-linecap: butt; stroke-linejoin: miter; stroke-miterlimit: 10; fill: none; fill-rule: nonzero; opacity: 1;" transform="translate(1.4065934065934016 1.4065934065934016) scale(2.81 2.81)" >
	<path d="M 88.5 32.989 H 78.038 c -0.828 0 -1.5 -0.671 -1.5 -1.5 s 0.672 -1.5 1.5 -1.5 H 88.5 c 0.828 0 1.5 0.671 1.5 1.5 S 89.328 32.989 88.5 32.989 z" style="stroke: none; stroke-width: 1; stroke-dasharray: none; stroke-linecap: butt; stroke-linejoin: miter; stroke-miterlimit: 10; fill: rgb(0,0,0); fill-rule: nonzero; opacity: 1;" transform=" matrix(1 0 0 1 0 0) " stroke-linecap="round" />
	<path d="M 11.962 32.989 H 1.5 c -0.829 0 -1.5 -0.671 -1.5 -1.5 s 0.671 -1.5 1.5 -1.5 h 10.462 c 0.829 0 1.5 0.671 1.5 1.5 S 12.791 32.989 11.962 32.989 z" style="stroke: none; stroke-width: 1; stroke-dasharray: none; stroke-linecap: butt; stroke-linejoin: miter; stroke-miterlimit: 10; fill: rgb(0,0,0); fill-rule: nonzero; opacity: 1;" transform=" matrix(1 0 0 1 0 0) " stroke-linecap="round" />
	<path d="M 73.896 16.973 c -0.527 0 -1.039 -0.279 -1.313 -0.773 c -0.402 -0.725 -0.141 -1.637 0.584 -2.039 l 9.15 -5.072 c 0.724 -0.4 1.638 -0.14 2.039 0.585 c 0.402 0.725 0.141 1.637 -0.584 2.039 l -9.15 5.072 C 74.393 16.912 74.143 16.973 73.896 16.973 z" style="stroke: none; stroke-width: 1; stroke-dasharray: none; stroke-linecap: butt; stroke-linejoin: miter; stroke-miterlimit: 10; fill: rgb(0,0,0); fill-rule: nonzero; opacity: 1;" transform=" matrix(1 0 0 1 0 0) " stroke-linecap="round" />
	<path d="M 6.956 54.079 c -0.528 0 -1.04 -0.278 -1.313 -0.772 c -0.401 -0.725 -0.14 -1.638 0.585 -2.039 l 9.15 -5.072 c 0.725 -0.403 1.638 -0.141 2.039 0.584 s 0.14 1.638 -0.585 2.039 l -9.15 5.072 C 7.451 54.019 7.202 54.079 6.956 54.079 z" style="stroke: none; stroke-width: 1; stroke-dasharray: none; stroke-linecap: butt; stroke-linejoin: miter; stroke-miterlimit: 10; fill: rgb(0,0,0); fill-rule: nonzero; opacity: 1;" transform=" matrix(1 0 0 1 0 0) " stroke-linecap="round" />
	<path d="M 16.103 16.973 c -0.246 0 -0.495 -0.061 -0.726 -0.188 l -9.15 -5.072 c -0.725 -0.402 -0.986 -1.314 -0.585 -2.039 s 1.314 -0.986 2.039 -0.585 l 9.15 5.072 c 0.725 0.402 0.986 1.314 0.585 2.039 C 17.143 16.693 16.631 16.973 16.103 16.973 z" style="stroke: none; stroke-width: 1; stroke-dasharray: none; stroke-linecap: butt; stroke-linejoin: miter; stroke-miterlimit: 10; fill: rgb(0,0,0); fill-rule: nonzero; opacity: 1;" transform=" matrix(1 0 0 1 0 0) " stroke-linecap="round" />
	<path d="M 83.045 54.079 c -0.246 0 -0.496 -0.061 -0.727 -0.188 l -9.15 -5.072 c -0.725 -0.401 -0.986 -1.314 -0.584 -2.039 c 0.401 -0.725 1.315 -0.986 2.039 -0.584 l 9.15 5.072 c 0.725 0.401 0.986 1.314 0.584 2.039 C 84.084 53.801 83.572 54.079 83.045 54.079 z" style="stroke: none; stroke-width: 1; stroke-dasharray: none; stroke-linecap: butt; stroke-linejoin: miter; stroke-miterlimit: 10; fill: rgb(0,0,0); fill-rule: nonzero; opacity: 1;" transform=" matrix(1 0 0 1 0 0) " stroke-linecap="round" />
	<path d="M 43.338 6.323 C 30.61 7.123 20.226 17.42 19.328 30.142 c -0.631 8.938 3.306 16.988 9.712 22.057 c 3.62 2.865 5.811 7.162 5.811 11.779 v 7.492 c 0 1.3 1.054 2.354 2.354 2.354 h 0.163 v 5.643 c 0 2.354 1.908 4.262 4.262 4.262 h 6.74 c 2.354 0 4.262 -1.908 4.262 -4.262 v -5.643 h 0.163 c 1.3 0 2.354 -1.054 2.354 -2.354 v -7.494 c 0 -4.536 2.05 -8.852 5.631 -11.635 c 6.059 -4.708 9.958 -12.064 9.958 -20.331 C 70.738 17.244 58.306 5.383 43.338 6.323 z M 45.208 52.638 c -1.826 0 -3.307 -1.481 -3.307 -3.307 s 1.481 -3.307 3.307 -3.307 s 3.307 1.481 3.307 3.307 S 47.035 52.638 45.208 52.638 z M 54.998 26.794 c 0 2.62 -1.006 5.097 -2.833 6.973 c -0.03 0.031 -0.062 0.062 -0.093 0.092 l -3.975 3.752 v 1.421 c 0.002 1.713 -1.386 3.1 -3.097 3.1 s -3.099 -1.388 -3.099 -3.099 v -2.757 c 0 -0.853 0.352 -1.667 0.972 -2.253 l 4.891 -4.618 c 0.67 -0.708 1.038 -1.633 1.038 -2.61 v -0.183 c 0 -1.034 -0.408 -2.001 -1.149 -2.724 c -0.74 -0.721 -1.721 -1.107 -2.755 -1.077 c -2.04 0.052 -3.7 1.827 -3.7 3.957 c 0 1.711 -1.388 3.099 -3.099 3.099 S 35 28.478 35 26.767 c 0 -5.459 4.368 -10.013 9.737 -10.151 c 2.718 -0.073 5.292 0.936 7.24 2.834 c 1.948 1.898 3.021 4.441 3.021 7.161 V 26.794 z" style="stroke: none; stroke-width: 1; stroke-dasharray: none; stroke-linecap: butt; stroke-linejoin: miter; stroke-miterlimit: 10; fill: rgb(0,0,0); fill-rule: nonzero; opacity: 1;" transform=" matrix(1 0 0 1 0 0) " stroke-linecap="round" />
</g>
</svg>